<?xml version="1.0" standalone="no"?><!DOCTYPE svg PUBLIC "-//W3C//DTD SVG 1.1//EN" "http://www.w3.org/Graphics/SVG/1.1/DTD/svg11.dtd"><svg t="1554740566280" class="icon" style="" viewBox="0 0 1024 1024" version="1.1" xmlns="http://www.w3.org/2000/svg" p-id="4233" xmlns:xlink="http://www.w3.org/1999/xlink" width="200" height="200"><defs><style type="text/css"></style></defs><path d="M0 511.098274C0 273.403311 165.196196 65.64565 397.120113 13.706235c128.045086-28.49454 249.597746-10.099331 364.297287 53.742867 14.066925 7.935188 20.559352 20.920042 17.673829 35.347657-2.524833 12.984854-13.345544 23.084185-27.051778 25.248327-8.295879 1.442762-15.509687-1.442762-22.723495-5.410355-41.479394-23.444875-85.483621-39.675942-132.01268-49.053893C394.95597 31.740754 184.312786 141.02994 102.075379 330.753082c-29.937302 68.891863-42.561465 140.66925-36.79042 215.332159 13.706235 182.870025 141.02994 341.213103 316.686158 393.513209 239.498415 71.056006 489.456851-64.924269 557.988024-305.144065 33.904896-118.667136 19.477281-233.005988-40.036633-341.213103-6.853117-12.624163-8.295879-25.248327 0.36069-37.151109 13.706235-19.477281 41.840085-17.673829 54.103558 3.246213 18.034519 31.380063 32.101444 64.202888 43.282846 98.468475 21.280733 66.727721 28.49454 134.898204 21.641423 204.511448-20.920042 207.757661-165.196196 381.249736-364.657978 439.681578-282.781261 82.237408-577.104614-90.893977-642.389574-378.003523C3.967594 586.843255 0 549.331455 0 511.098274z m0 0" p-id="4234" fill="#343434"></path><path d="M478.99683 399.644945v-111.814019c0-13.706235 6.853117-23.805565 19.477281-28.85523 12.624163-5.410356 24.166256-2.885523 34.265586 6.131736 7.574498 6.853117 10.099331 15.870377 10.099331 25.609017v158.703769c0 14.066925 0.36069 28.13385 0 42.200775 0 4.688975 1.442762 7.574498 4.688975 10.820712 47.971821 47.971821 96.304333 95.943642 144.276153 143.915463 14.066925 14.066925 14.427615 33.544206 1.803452 46.52906-11.542092 11.542092-29.937302 12.624163-42.561465 2.164142-2.164142-1.803452-3.967594-3.606904-5.771046-5.410356l-152.932723-152.932723c-8.656569-8.295879-12.624163-18.034519-12.624163-29.937302-0.721381-35.347658-0.721381-71.056006-0.721381-107.125044z m0 0" p-id="4235" fill="#343434"></path></svg>